{
  "accessors": [
    {
      "bufferView": 2,
      "componentType": 5126,
      "count": 26188,
      "max": [
        1.1680502891540527,
        0.2873416244983673,
        1.7082961797714233
      ],
      "min": [
        -1.202087163925171,
        -0.2133960723876953,
        -1.5725511312484741
      ],
      "type": "VEC3"
    },
    {
      "bufferView": 2,
      "byteOffset": 314256,
      "componentType": 5126,
      "count": 26188,
      "max": [
        0.9999492168426514,
        0.9997402429580688,
        0.9999246597290039
      ],
      "min": [
        -0.9999492168426514,
        -0.9988994598388672,
        -0.9996248483657837
      ],
      "type": "VEC3"
    },
    {
      "bufferView": 1,
      "componentType": 5126,
      "count": 26188,
      "max": [
        0.995052695274353,
        0.9944440722465515
      ],
      "min": [
        0.005985012277960777,
        0.009442385286092758
      ],
      "type": "VEC2"
    },
    {
      "bufferView": 0,
      "componentType": 5125,
      "count": 39252,
      "type": "SCALAR"
    },
    {
      "bufferView": 2,
      "byteOffset": 628512,
      "componentType": 5126,
      "count": 276,
      "max": [
        0.07256319373846054,
        0.13695992529392242,
        1.5447813272476196
      ],
      "min": [
        -0.10604503005743027,
        0.07372339069843292,
        1.4824130535125732
      ],
      "type": "VEC3"
    },
    {
      "bufferView": 2,
      "byteOffset": 631824,
      "componentType": 5126,
      "count": 276,
      "max": [
        0.995859682559967,
        0.9982420802116394,
        0.9999922513961792
      ],
      "min": [
        -0.995859682559967,
        -0.9987813830375671,
        -0.9999721050262451
      ],
      "type": "VEC3"
    },
    {
      "bufferView": 1,
      "byteOffset": 209504,
      "componentType": 5126,
      "count": 276,
      "max": [
        0.9852517247200012,
        0.6384826898574829
      ],
      "min": [
        0.13884173333644867,
        0.043072402477264404
      ],
      "type": "VEC2"
    },
    {
      "bufferView": 0,
      "byteOffset": 157008,
      "componentType": 5125,
      "count": 1536,
      "type": "SCALAR"
    },
    {
      "bufferView": 2,
      "byteOffset": 635136,
      "componentType": 5126,
      "count": 1308,
      "max": [
        0.09749742597341537,
        0.168670654296875,
        1.5636155605316162
      ],
      "min": [
        -0.13153432309627533,
        0.1108555793762207,
        1.495830774307251
      ],
      "type": "VEC3"
    },
    {
      "bufferView": 2,
      "byteOffset": 650832,
      "componentType": 5126,
      "count": 1308,
      "max": [
        0.9973573684692383,
        0.9832385778427124,
        0.9980666637420654
      ],
      "min": [
        -0.9973553419113159,
        -0.9934141635894775,
        -0.9971041083335876
      ],
      "type": "VEC3"
    },
    {
      "bufferView": 1,
      "byteOffset": 211712,
      "componentType": 5126,
      "count": 1308,
      "max": [
        0.8303614854812622,
        0.9854885339736938
      ],
      "min": [
        0.009017672389745712,
        0.021535217761993408
      ],
      "type": "VEC2"
    },
    {
      "bufferView": 0,
      "byteOffset": 163152,
      "componentType": 5125,
      "count": 6528,
      "type": "SCALAR"
    }
  ],
  "asset": {
    "extras": {
      "author": "AK_anna (https://sketchfab.com/AK_anna)",
      "license": "CC-BY-4.0 (http://creativecommons.org/licenses/by/4.0/)",
      "source": "https://sketchfab.com/3d-models/female-base-mesh-efc509ab1ae74ec783fd62a7acfc3e03",
      "title": "Female base mesh"
    },
    "generator": "Sketchfab-12.67.0",
    "version": "2.0"
  },
  "bufferViews": [
    {
      "buffer": 0,
      "byteLength": 189264,
      "name": "floatBufferViews",
      "target": 34963
    },
    {
      "buffer": 0,
      "byteLength": 222176,
      "byteOffset": 189264,
      "byteStride": 8,
      "name": "floatBufferViews",
      "target": 34962
    },
    {
      "buffer": 0,
      "byteLength": 666528,
      "byteOffset": 411440,
      "byteStride": 12,
      "name": "floatBufferViews",
      "target": 34962
    }
  ],
  "buffers": [
    {
      "byteLength": 1077968,
      "uri": "scene.bin"
    }
  ],
  "materials": [
    {
      "doubleSided": true,
      "name": "eye_fem__0",
      "pbrMetallicRoughness": {
        "metallicFactor": 0.0,
        "roughnessFactor": 0.6
      }
    },
    {
      "doubleSided": true,
      "name": "Material.002",
      "pbrMetallicRoughness": {
        "baseColorFactor": [
          0.8,
          0.8,
          0.8,
          1.0
        ],
        "metallicFactor": 0.0,
        "roughnessFactor": 0.8211145618000169
      }
    },
    {
      "doubleSided": true,
      "name": "Material",
      "pbrMetallicRoughness": {
        "baseColorFactor": [
          0.8,
          0.8,
          0.8,
          1.0
        ],
        "metallicFactor": 0.0,
        "roughnessFactor": 0.8211145618000169
      }
    }
  ],
  "meshes": [
    {
      "name": "fem body_Material.002_0",
      "primitives": [
        {
          "attributes": {
            "NORMAL": 1,
            "POSITION": 0,
            "TEXCOORD_0": 2
          },
          "indices": 3,
          "material": 1,
          "mode": 4
        }
      ]
    },
    {
      "name": "eye fem__0",
      "primitives": [
        {
          "attributes": {
            "NORMAL": 5,
            "POSITION": 4,
            "TEXCOORD_0": 6
          },
          "indices": 7,
          "material": 0,
          "mode": 4
        }
      ]
    },
    {
      "name": "fem brow and lashes_Material_0",
      "primitives": [
        {
          "attributes": {
            "NORMAL": 9,
            "POSITION": 8,
            "TEXCOORD_0": 10
          },
          "indices": 11,
          "material": 2,
          "mode": 4
        }
      ]
    }
  ],
  "nodes": [
    {
      "children": [
        1
      ],
      "matrix": [
        1.0,
        0.0,
        0.0,
        0.0,
        0.0,
        2.220446049250313e-16,
        -1.0,
        0.0,
        0.0,
        1.0,
        2.220446049250313e-16,
        0.0,
        0.0,
        0.0,
        0.0,
        1.0
      ],
      "name": "Sketchfab_model"
    },
    {
      "children": [
        2
      ],
      "matrix": [
        0.009999999776482582,
        0.0,
        0.0,
        0.0,
        0.0,
        0.0,
        0.009999999776482582,
        0.0,
        0.0,
        -0.009999999776482582,
        0.0,
        0.0,
        0.0,
        0.0,
        0.0,
        1.0
      ],
      "name": "7ce844d06bd3499c81c61c2754b7d838.fbx"
    },
    {
      "children": [
        3,
        5,
        7
      ],
      "name": "RootNode"
    },
    {
      "children": [
        4
      ],
      "matrix": [
        100.0,
        0.0,
        0.0,
        0.0,
        0.0,
        -1.629206793918314e-05,
        -99.99999999999868,
        0.0,
        0.0,
        99.99999999999868,
        -1.629206793918314e-05,
        0.0,
        0.0,
        0.0,
        0.0,
        1.0
      ],
      "name": "fem body"
    },
    {
      "mesh": 0,
      "name": "fem body_Material.002_0"
    },
    {
      "children": [
        6
      ],
      "matrix": [
        100.0,
        0.0,
        0.0,
        0.0,
        0.0,
        -1.629206793918314e-05,
        -99.99999999999868,
        0.0,
        0.0,
        99.99999999999868,
        -1.629206793918314e-05,
        0.0,
        0.0,
        0.0,
        0.0,
        1.0
      ],
      "name": "eye fem"
    },
    {
      "mesh": 1,
      "name": "eye fem__0"
    },
    {
      "children": [
        8
      ],
      "matrix": [
        100.0,
        0.0,
        0.0,
        0.0,
        0.0,
        -1.629206793918314e-05,
        -99.99999999999868,
        0.0,
        0.0,
        99.99999999999868,
        -1.629206793918314e-05,
        0.0,
        0.0,
        0.0,
        0.0,
        1.0
      ],
      "name": "fem brow and lashes"
    },
    {
      "mesh": 2,
      "name": "fem brow and lashes_Material_0"
    }
  ],
  "scene": 0,
  "scenes": [
    {
      "name": "Sketchfab_Scene",
      "nodes": [
        0
      ]
    }
  ]
}
